<svg width="48" height="48" viewBox="0 0 48 48" fill="none" xmlns="http://www.w3.org/2000/svg">
<path d="M44.5 23.5C44.5 34.5457 35.5457 43.5 24.5 43.5C13.4543 43.5 4.5 34.5457 4.5 23.5C4.5 12.4543 13.4543 3.5 24.5 3.5C35.5457 3.5 44.5 12.4543 44.5 23.5Z" fill="url(#paint0_linear_64_4)" stroke="black"/>
<path d="M29.9097 9.5948L32.9214 14.2438C33.2833 14.8023 33.9698 15.0556 34.6077 14.866L39.6427 13.3695C40.0953 13.2349 40.465 13.7449 40.1963 14.1332L36.9737 18.7906C36.6278 19.2904 36.6178 19.9496 36.9483 20.4597L40.1201 25.3558C40.3862 25.7666 39.9646 26.2756 39.5114 26.0905L34.7095 24.1298C34.0581 23.8638 33.3093 24.0864 32.909 24.665L29.9577 28.9303C29.6792 29.3328 29.048 29.1368 29.0465 28.6473L29.029 22.8136C29.0272 22.2058 28.6587 21.6592 28.096 21.4294L22.8527 19.2885C22.4155 19.11 22.4466 18.4808 22.8992 18.3463L27.9341 16.8497C28.572 16.6601 29.0087 16.0729 29.0067 15.4074L28.9901 9.86816C28.9886 9.36927 29.6385 9.17609 29.9097 9.5948Z" fill="url(#paint1_linear_64_4)" stroke="black"/>
<defs>
<linearGradient id="paint0_linear_64_4" x1="37.5" y1="10" x2="24.5" y2="44" gradientUnits="userSpaceOnUse">
<stop stop-color="#DE6E6E"/>
<stop offset="1" stop-color="#B83232"/>
</linearGradient>
<linearGradient id="paint1_linear_64_4" x1="30" y1="16.5" x2="42" y2="14.5" gradientUnits="userSpaceOnUse">
<stop stop-color="#399B34"/>
<stop offset="1" stop-color="#133512"/>
</linearGradient>
</defs>
</svg>
