<svg width="246" height="48" viewBox="0 0 246 48" fill="none" xmlns="http://www.w3.org/2000/svg">
<circle cx="23" cy="27" r="15.5" stroke="#FCFCFC"/>
<path d="M27.5361 16.8335L29.3914 19.6974C29.7532 20.256 30.4398 20.5093 31.0777 20.3197L34.2518 19.3762C34.7044 19.2417 35.0741 19.7517 34.8055 20.14L32.7289 23.1411C32.3831 23.6409 32.373 24.3 32.7035 24.8101L34.7189 27.9212C34.9851 28.332 34.5634 28.8409 34.1103 28.6559L31.1731 27.4566C30.5216 27.1906 29.7729 27.4132 29.3725 27.9918L27.5673 30.6008C27.2888 31.0033 26.6576 30.8072 26.6561 30.3178L26.645 26.611C26.6432 26.0031 26.2747 25.4565 25.712 25.2268L22.3334 23.8472C21.8962 23.6687 21.9273 23.0396 22.3799 22.905L25.5541 21.9615C26.192 21.7719 26.6287 21.1847 26.6267 20.5192L26.6165 17.1069C26.615 16.608 27.2648 16.4148 27.5361 16.8335Z" stroke="#FCFCFC"/>
<path d="M54.16 36V20.664H46.48V18.72H63.76V20.664H56.104V36H54.16ZM65.3858 36C64.8578 36 64.3698 35.872 63.9218 35.616C63.4898 35.344 63.1378 34.992 62.8658 34.56C62.6098 34.112 62.4818 33.624 62.4818 33.096V24.984C62.4818 24.456 62.6098 23.976 62.8658 23.544C63.1378 23.096 63.4898 22.744 63.9218 22.488C64.3698 22.216 64.8578 22.08 65.3858 22.08H73.7378C74.2818 22.08 74.7698 22.216 75.2018 22.488C75.6498 22.744 76.0018 23.096 76.2578 23.544C76.5298 23.976 76.6658 24.456 76.6658 24.984V33.096C76.6658 33.624 76.5298 34.112 76.2578 34.56C76.0018 34.992 75.6498 35.344 75.2018 35.616C74.7698 35.872 74.2818 36 73.7378 36H65.3858ZM65.3858 34.032H73.7378C73.9938 34.032 74.2098 33.944 74.3858 33.768C74.5778 33.576 74.6738 33.352 74.6738 33.096V24.984C74.6738 24.728 74.5778 24.512 74.3858 24.336C74.2098 24.144 73.9938 24.048 73.7378 24.048H65.3858C65.1298 24.048 64.9058 24.144 64.7138 24.336C64.5378 24.512 64.4498 24.728 64.4498 24.984V33.096C64.4498 33.352 64.5378 33.576 64.7138 33.768C64.9058 33.944 65.1298 34.032 65.3858 34.032ZM79.171 36V22.08H97.555C98.099 22.08 98.587 22.216 99.019 22.488C99.467 22.744 99.819 23.096 100.075 23.544C100.331 23.976 100.459 24.456 100.459 24.984V36H98.515V24.984C98.515 24.728 98.419 24.512 98.227 24.336C98.035 24.144 97.811 24.048 97.555 24.048H91.771C91.515 24.048 91.291 24.144 91.099 24.336C90.923 24.512 90.835 24.728 90.835 24.984V36H88.843V24.984C88.843 24.728 88.747 24.512 88.555 24.336C88.379 24.144 88.163 24.048 87.907 24.048H82.099C81.843 24.048 81.619 24.144 81.427 24.336C81.251 24.512 81.163 24.728 81.163 24.984V36H79.171ZM105.488 36C104.96 36 104.472 35.872 104.024 35.616C103.592 35.344 103.24 34.992 102.968 34.56C102.712 34.112 102.584 33.624 102.584 33.096V28.056H114.776V24.984C114.776 24.728 114.68 24.512 114.488 24.336C114.312 24.144 114.096 24.048 113.84 24.048H102.584V22.08H113.84C114.384 22.08 114.872 22.216 115.304 22.488C115.752 22.744 116.104 23.096 116.36 23.544C116.632 23.976 116.768 24.456 116.768 24.984V36H105.488ZM105.488 34.032H114.776V30.024H104.552V33.096C104.552 33.352 104.64 33.576 104.816 33.768C105.008 33.944 105.232 34.032 105.488 34.032ZM122.176 36C121.632 36 121.136 35.872 120.688 35.616C120.256 35.344 119.912 34.992 119.656 34.56C119.4 34.112 119.272 33.624 119.272 33.096V17.52H121.24V22.08H127.264V24.048H121.24V33.096C121.24 33.352 121.328 33.576 121.504 33.768C121.696 33.944 121.92 34.032 122.176 34.032H127.264V36H122.176ZM131.972 36C131.444 36 130.956 35.872 130.508 35.616C130.076 35.344 129.724 34.992 129.452 34.56C129.196 34.112 129.068 33.624 129.068 33.096V24.984C129.068 24.456 129.196 23.976 129.452 23.544C129.724 23.096 130.076 22.744 130.508 22.488C130.956 22.216 131.444 22.08 131.972 22.08H140.324C140.868 22.08 141.356 22.216 141.788 22.488C142.236 22.744 142.588 23.096 142.844 23.544C143.116 23.976 143.252 24.456 143.252 24.984V33.096C143.252 33.624 143.116 34.112 142.844 34.56C142.588 34.992 142.236 35.344 141.788 35.616C141.356 35.872 140.868 36 140.324 36H131.972ZM131.972 34.032H140.324C140.58 34.032 140.796 33.944 140.972 33.768C141.164 33.576 141.26 33.352 141.26 33.096V24.984C141.26 24.728 141.164 24.512 140.972 24.336C140.796 24.144 140.58 24.048 140.324 24.048H131.972C131.716 24.048 131.492 24.144 131.3 24.336C131.124 24.512 131.036 24.728 131.036 24.984V33.096C131.036 33.352 131.124 33.576 131.3 33.768C131.492 33.944 131.716 34.032 131.972 34.032ZM152.344 36V18.744H166.744C167.272 18.744 167.752 18.88 168.184 19.152C168.632 19.408 168.984 19.752 169.24 20.184C169.496 20.616 169.624 21.096 169.624 21.624V26.688C169.624 27.216 169.496 27.696 169.24 28.128C168.984 28.56 168.632 28.912 168.184 29.184C167.752 29.44 167.272 29.568 166.744 29.568H154.288V36H152.344ZM155.224 27.6H166.744C167 27.6 167.216 27.512 167.392 27.336C167.584 27.16 167.68 26.944 167.68 26.688V21.624C167.68 21.368 167.584 21.152 167.392 20.976C167.216 20.784 167 20.688 166.744 20.688H155.224C154.968 20.688 154.744 20.784 154.552 20.976C154.376 21.152 154.288 21.368 154.288 21.624V26.688C154.288 26.944 154.376 27.16 154.552 27.336C154.744 27.512 154.968 27.6 155.224 27.6ZM174.136 36C173.608 36 173.12 35.872 172.672 35.616C172.24 35.344 171.888 34.992 171.616 34.56C171.36 34.112 171.232 33.624 171.232 33.096V17.52H173.2V33.096C173.2 33.352 173.288 33.576 173.464 33.768C173.656 33.944 173.88 34.032 174.136 34.032H176.488V36H174.136ZM181.144 36C180.616 36 180.128 35.872 179.68 35.616C179.248 35.344 178.896 34.992 178.624 34.56C178.368 34.112 178.24 33.624 178.24 33.096V28.056H190.432V24.984C190.432 24.728 190.336 24.512 190.144 24.336C189.968 24.144 189.752 24.048 189.496 24.048H178.24V22.08H189.496C190.04 22.08 190.528 22.216 190.96 22.488C191.408 22.744 191.76 23.096 192.016 23.544C192.288 23.976 192.424 24.456 192.424 24.984V36H181.144ZM181.144 34.032H190.432V30.024H180.208V33.096C180.208 33.352 180.296 33.576 180.472 33.768C180.664 33.944 180.888 34.032 181.144 34.032ZM194.601 36V22.08H205.881C206.409 22.08 206.889 22.216 207.321 22.488C207.769 22.744 208.121 23.096 208.377 23.544C208.649 23.976 208.785 24.456 208.785 24.984V36H206.817V24.984C206.817 24.728 206.721 24.512 206.529 24.336C206.353 24.144 206.137 24.048 205.881 24.048H197.529C197.273 24.048 197.049 24.144 196.857 24.336C196.665 24.512 196.569 24.728 196.569 24.984V36H194.601ZM214.144 36C213.616 36 213.128 35.872 212.68 35.616C212.248 35.344 211.896 34.992 211.624 34.56C211.368 34.112 211.24 33.624 211.24 33.096V24.984C211.24 24.456 211.368 23.976 211.624 23.544C211.896 23.096 212.248 22.744 212.68 22.488C213.128 22.216 213.616 22.08 214.144 22.08H222.496C223.04 22.08 223.528 22.216 223.96 22.488C224.408 22.744 224.76 23.096 225.016 23.544C225.288 23.976 225.424 24.456 225.424 24.984V30.024H213.208V33.096C213.208 33.352 213.296 33.576 213.472 33.768C213.664 33.944 213.888 34.032 214.144 34.032H225.424V36H214.144ZM213.208 28.056H223.432V24.984C223.432 24.728 223.336 24.512 223.144 24.336C222.968 24.144 222.752 24.048 222.496 24.048H214.144C213.888 24.048 213.664 24.144 213.472 24.336C213.296 24.512 213.208 24.728 213.208 24.984V28.056ZM230.809 36C230.265 36 229.769 35.872 229.321 35.616C228.889 35.344 228.545 34.992 228.289 34.56C228.033 34.112 227.905 33.624 227.905 33.096V17.52H229.873V22.08H235.897V24.048H229.873V33.096C229.873 33.352 229.961 33.576 230.137 33.768C230.329 33.944 230.553 34.032 230.809 34.032H235.897V36H230.809Z" fill="#FCFCFC"/>
</svg>
